<svg width="732" height="272" viewBox="0 0 732 272" xmlns="http://www.w3.org/2000/svg" xmlns:xlink="http://www.w3.org/1999/xlink" xmlns:figma="http://www.figma.com/figma/ns">
  <title>
    jamon_logo
  </title>
  <desc>
    Created using Figma
  </desc>
  <g transform="matrix(2 0 0 2 -1920 -296)" figma:type="canvas">
    <mask id="a">
      <path d="M960 148h366v136H960V148z" fill="#FFF"/>
    </mask>
    <g style="mix-blend-mode:normal" mask="url(#a)" figma:type="frame">
      <path d="M960 148h366v136H960V148z" fill="#FFF"/>
      <use xlink:href="#b" transform="translate(1057 151)" fill="#333" style="mix-blend-mode:normal" figma:type="text"/>
      <use xlink:href="#c" transform="translate(960 148)" fill="#D21717" style="mix-blend-mode:normal" figma:type="vector-operation"/>
    </g>
  </g>
  <defs>
    <path id="b" d="M-2.766 95.625c0-1.875.625-3.5 1.875-4.875s2.86-2.063 4.82-2.063c2.09 0 3.72.626 4.87 1.876s1.73 2.765 1.73 4.546c0 1.03-.33 2.14-.99 3.32-.63 1.18-1.49 2.06-2.58 2.62l.14.19c.4.59 1.33.89 2.76.89.5 0 .92-.03 1.26-.1.37-.07.84-.21 1.4-.42.56-.22 1.03-.6 1.41-1.13.4-.53.79-1.24 1.17-2.11.37-.85.65-1.99.84-3.42.22-1.44.33-3.11.33-5.02V26.01l-9.09-.47v-2.1H35.5v2.11l-7.22.468V79.97c0 4.186-.486 7.843-1.455 10.968-.94 3.156-2.097 5.578-3.47 7.265-1.377 1.688-3 3.047-4.877 4.078-1.84 1.07-3.5 1.74-4.97 2.02-1.435.28-2.903.42-4.403.42-3.342 0-6.17-.79-8.483-2.39-2.28-1.59-3.42-3.83-3.42-6.7zM40.5 80.155c0-1.53.234-3 .703-4.405.5-1.438 1.297-2.813 2.39-4.125 1.094-1.313 2.438-2.453 4.032-3.422 1.594-.97 3.563-1.734 5.906-2.297 2.38-.594 5-.89 7.88-.89 1.53 0 2.99.062 4.36.187v-6.47c0-2.06-.04-3.733-.14-5.014-.06-1.29-.25-2.6-.56-3.94-.31-1.38-.76-2.42-1.36-3.14-.56-.75-1.37-1.36-2.43-1.83-1.03-.5-2.29-.75-3.79-.75-4.56 0-7.89 1.79-9.98 5.39v.19c.54-.1 1.02-.14 1.46-.14 1.63 0 2.91.5 3.85 1.5s1.41 2.43 1.41 4.31c0 1.62-.56 3-1.68 4.12-1.12 1.09-2.53 1.64-4.22 1.64-1.84 0-3.29-.63-4.35-1.88-1.062-1.25-1.593-2.72-1.593-4.41 0-3.69 1.69-6.77 5.065-9.24 3.4-2.47 7.31-3.7 11.72-3.7 3.12 0 5.78.33 7.964.98 2.22.65 3.985 1.53 5.298 2.62 1.32 1.06 2.33 2.53 3.05 4.4.75 1.84 1.24 3.73 1.458 5.67.25 1.93.375 4.31.375 7.12V87.9l4.826.467v1.93H67.18l-1.32-7.4h-.095c-1.532 2.97-3.39 5.185-5.58 6.654-2.155 1.44-4.78 2.16-7.873 2.16-3.813 0-6.735-1.14-8.766-3.42-2.03-2.28-3.047-5-3.047-8.15zm11.344-.983c0 2.5.468 4.53 1.406 6.094.938 1.53 2.313 2.296 4.125 2.296 2.125 0 4.047-1.328 5.766-3.984 1.75-2.656 2.63-5.906 2.63-9.75v-6.47c-1.25-.155-2.26-.233-3.04-.233-1.62 0-3.08.22-4.36.656-1.25.44-2.25 1.04-3 1.79S54 71.12 53.5 71.96c-.5.82-.86 1.72-1.08 2.72-.22 1-.374 1.83-.47 2.49-.06.656-.092 1.328-.092 2.016zm35.11-32.156v-1.922l9.796-1.032 6.61-1.734.656 1.36v6.328h.187c3.72-5.438 8.203-8.157 13.453-8.157 1.094 0 2.156.12 3.188.37 1.03.22 2.11.62 3.234 1.22 1.156.56 2.203 1.47 3.14 2.72.938 1.22 1.673 2.7 2.204 4.45h.094c4.187-5.85 9.062-8.77 14.625-8.77 1.1 0 2.16.11 3.19.33 1.03.18 2.14.62 3.33 1.31 1.22.69 2.27 1.58 3.14 2.67.88 1.09 1.61 2.64 2.21 4.64.6 1.97.89 4.26.89 6.89v30.24l4.83.46v1.92h-21.14V88.4l4.78-.47V56.06c0-1.842-.17-3.42-.51-4.733-.31-1.345-.69-2.345-1.12-3-.4-.657-.92-1.157-1.55-1.5-.62-.376-1.12-.595-1.5-.657-.37-.062-.79-.093-1.26-.093-2.09 0-4.14 1.155-6.14 3.47-1.97 2.31-2.95 5.482-2.95 9.513v28.88l4.83.468v1.922H114v-1.922l4.78-.47V56.064c0-1.843-.155-3.42-.468-4.734-.312-1.344-.687-2.344-1.124-3-.407-.656-.922-1.156-1.547-1.5-.59-.375-1.07-.594-1.45-.656-.37-.063-.79-.094-1.26-.094-2 0-3.95 1.344-5.86 4.03-1.9 2.69-2.86 5.986-2.86 9.892V87.94l4.83.468v1.922H87.89v-1.922l4.827-.47v-40.92H86.95zm80.765 20.062c0-4.72.9-9 2.71-12.844 1.84-3.843 4.4-6.86 7.68-9.047 3.31-2.218 7.04-3.328 11.2-3.328 3.44 0 6.53.71 9.28 2.15 2.78 1.4 5 3.29 6.66 5.67 1.68 2.37 2.97 5.03 3.84 7.97.9 2.9 1.36 5.95 1.36 9.14 0 4.59-.88 8.78-2.63 12.56-1.75 3.78-4.27 6.79-7.55 9.04-3.25 2.22-6.94 3.33-11.07 3.33-3.66 0-6.89-.64-9.7-1.92-2.78-1.32-5.03-3.11-6.75-5.39-1.69-2.32-2.96-4.93-3.8-7.83-.84-2.91-1.26-6.08-1.26-9.52zm12-.562c0 3.468.17 6.578.51 9.328.34 2.72.87 5.14 1.59 7.265.72 2.09 1.69 3.7 2.9 4.82 1.22 1.12 2.65 1.68 4.31 1.68 6.28 0 9.42-7.52 9.42-22.55 0-3.78-.16-7.03-.47-9.75-.28-2.72-.78-5.11-1.5-7.17-.69-2.1-1.66-3.64-2.91-4.64-1.25-1.03-2.77-1.55-4.55-1.55-1.66 0-3.1.56-4.32 1.68-1.22 1.12-2.19 2.72-2.91 4.78-.72 2.06-1.25 4.42-1.6 7.07-.34 2.66-.51 5.66-.51 9zm5.53-31.594l5.2-14.906c.28-.938.81-1.703 1.59-2.297.78-.63 1.65-.94 2.62-.94 1.18 0 2.18.42 3 1.26.81.84 1.22 1.87 1.22 3.09 0 1.5-.49 2.75-1.46 3.75l-10.45 11.25-1.74-1.22zm31.59 10.172l9.79-1.032 6.61-1.734.84 1.36-.19 6.328h.18c3.72-5.438 8.53-8.157 14.44-8.157 1.12 0 2.2.09 3.23.28 1.03.18 2.17.61 3.42 1.26s2.32 1.51 3.23 2.58c.9 1.06 1.67 2.58 2.29 4.54.62 1.97.93 4.26.93 6.89v30.52l4.78.47v1.92H245.3V88.4l4.78-.47V56.06c0-6.656-2.14-9.984-6.42-9.984-2.81 0-5.122 1.28-6.94 3.844-1.78 2.563-2.67 5.923-2.67 10.08v27.94l4.83.467v1.922h-21.14V88.4l4.83-.47V46.92l-5.67.093-.094-1.922z"/>
    <path id="c" fill-rule="evenodd" d="M72 0H0v28.83c62.548 7.175 65.68 4.783 70.574 1.047.445-.34.905-.69 1.426-1.047V0zm-8.607 43.228c-2.748-.338-5.433-.675-8.05-1.004h-.003C26.173 38.56 5.492 35.964 0 44.262v8.68c7.962 1.37 15.273-.383 25.782-2.904 9.215-2.21 20.887-5.008 37.61-6.81zM72 46.433C63 43.27 14.946 54.566 0 60.66V84c8.097 4.807 22.467 5.646 36.697 6.476 13.89.81 27.647 1.612 35.303 6.09V46.434zM0 136V94c16.91 2.17 27.77 1.917 36.703 1.71C48.638 95.434 57.13 95.237 72 101v35H0z"/>
  </defs>
</svg>
